<?xml version="1.0" encoding="UTF-8" standalone="no"?>
<!-- Created with Inkscape (http://www.inkscape.org/) -->

<svg
   xmlns:dc="http://purl.org/dc/elements/1.1/"
   xmlns:cc="http://creativecommons.org/ns#"
   xmlns:rdf="http://www.w3.org/1999/02/22-rdf-syntax-ns#"
   xmlns:svg="http://www.w3.org/2000/svg"
   xmlns="http://www.w3.org/2000/svg"
   xmlns:sodipodi="http://sodipodi.sourceforge.net/DTD/sodipodi-0.dtd"
   xmlns:inkscape="http://www.inkscape.org/namespaces/inkscape"
   sodipodi:docname="titlecard.svg"
   inkscape:version="0.91 r13725"
   version="1.1"
   id="svg3383"
   viewBox="0 0 800.00001 600.00001"
   height="600"
   width="800">
  <sodipodi:namedview
     inkscape:snap-global="false"
     inkscape:window-maximized="1"
     inkscape:window-y="27"
     inkscape:window-x="0"
     inkscape:window-height="836"
     inkscape:window-width="1440"
     inkscape:object-nodes="true"
     showgrid="false"
     inkscape:current-layer="layer1"
     inkscape:document-units="px"
     inkscape:cy="306.08654"
     inkscape:cx="42.07286"
     inkscape:zoom="1"
     inkscape:pageshadow="2"
     inkscape:pageopacity="0.0"
     borderopacity="1.0"
     bordercolor="#666666"
     pagecolor="#ffffff"
     id="base"
     units="px"
     inkscape:snap-page="true">
    <inkscape:grid
       id="grid3397"
       type="xygrid" />
  </sodipodi:namedview>
  <defs
     id="defs3385" />
  <metadata
     id="metadata3388">
    <rdf:RDF>
      <cc:Work
         rdf:about="">
        <dc:format>image/svg+xml</dc:format>
        <dc:type
           rdf:resource="http://purl.org/dc/dcmitype/StillImage" />
        <dc:title />
      </cc:Work>
    </rdf:RDF>
  </metadata>
  <g
     id="layer1"
     inkscape:groupmode="layer"
     inkscape:label="Layer 1"
     transform="translate(0,-452.36216)">
    <path
       inkscape:connector-curvature="0"
       id="path3399"
       d="m 914.58905,24.077934 0,20 20,0 0,69.999996 20,0 0,-69.999996 20,0 0,-20 z"
       style="fill:none;fill-rule:evenodd;stroke:#000000;stroke-width:1px;stroke-linecap:butt;stroke-linejoin:miter;stroke-opacity:1" />
    <path
       inkscape:connector-curvature="0"
       id="path3401"
       d="m 984.58905,24.077934 0,89.999996 20.00005,0 0,-40.000001 20,0 0,40.000001 20,0 0,-89.999996 -20,0 0,30 -20,0 0,-30 z"
       style="fill:none;fill-rule:evenodd;stroke:#000000;stroke-width:1px;stroke-linecap:butt;stroke-linejoin:miter;stroke-opacity:1" />
    <path
       sodipodi:nodetypes="ccccccccccccc"
       inkscape:connector-curvature="0"
       id="path3403"
       d="m 1054.5891,24.077934 0,89.999996 60,0 0,-20.000001 -40,0 0,-20 20,0 0,-19.999995 -20,0 0,-10 40,0 0,-20 z"
       style="fill:none;fill-rule:evenodd;stroke:#000000;stroke-width:1px;stroke-linecap:butt;stroke-linejoin:miter;stroke-opacity:1" />
    <path
       style="fill:none;fill-rule:evenodd;stroke:#000000;stroke-width:1px;stroke-linecap:butt;stroke-linejoin:miter;stroke-opacity:1"
       d="m 1394.5891,139.07794 0,89.99999 60,0 0,-20 -40,0 0,-20 20,0 0,-19.99999 -20,0 0,-10 40,0 0,-20 z"
       id="path3405"
       inkscape:connector-curvature="0"
       sodipodi:nodetypes="ccccccccccccc" />
    <path
       inkscape:connector-curvature="0"
       id="path3409"
       d="m 1384.5891,209.07793 0,20 -60,0 0,-90 20,0 0,70 z"
       style="fill:none;fill-rule:evenodd;stroke:#000000;stroke-width:1px;stroke-linecap:butt;stroke-linejoin:miter;stroke-opacity:1" />
    <path
       sodipodi:nodetypes="cccccccccccccccccccc"
       inkscape:connector-curvature="0"
       id="path3411"
       d="m 1254.5891,139.07706 0,90 50,8.7e-4 c 5,0 10,-5 10,-10 l 0,-30 c 0,-2 -3,-5 -5,-5 2,0 5,-3 5,-5 l 0,-30 c 0,-5 -5,-10 -10,-10 z m 20,20 20,0 0,15 -20,0 z m 0,35 20,0 0,15 -20,0 z"
       style="fill:none;fill-rule:evenodd;stroke:#000000;stroke-width:1px;stroke-linecap:butt;stroke-linejoin:miter;stroke-opacity:1" />
    <path
       sodipodi:nodetypes="ccccccccccccc"
       inkscape:connector-curvature="0"
       id="path3417"
       d="m 1174.5891,139.07793 0,80 c 0,5 -5,10 -10,10 l -40,0 c -5,0 -10,-5 -10,-10 l 0,-80 20,0 0,65 c 0,3 2,5 5,5 l 10,0 c 3,0 5,-2 5,-5 l 0,-65 z"
       style="fill:none;fill-rule:evenodd;stroke:#000000;stroke-width:1px;stroke-linecap:butt;stroke-linejoin:miter;stroke-opacity:1" />
    <path
       style="fill:none;fill-rule:evenodd;stroke:#000000;stroke-width:1px;stroke-linecap:butt;stroke-linejoin:miter;stroke-opacity:1"
       d="m 1104.5891,209.07793 0,20 -60,0 0,-90 20,0 0,70 z"
       id="path3419"
       inkscape:connector-curvature="0" />
    <path
       sodipodi:nodetypes="cccccccccccccccc"
       inkscape:connector-curvature="0"
       style="fill:none;fill-rule:evenodd;stroke:#000000;stroke-width:1px;stroke-linecap:butt;stroke-linejoin:miter;stroke-opacity:1"
       d="m 974.58905,149.07793 0,80 20,0 0,-25 20.00005,0 0,25 20,0 0,-80 c 0,-5 -5,-10 -10,-10 l -40.00005,0 c -5,0 -10,5 -10,10 z m 20,10 20.00005,0 0,25 -20.00005,0 z"
       id="path3422" />
    <path
       sodipodi:nodetypes="cccccccc"
       inkscape:connector-curvature="0"
       id="path3424"
       d="m 964.58905,139.07793 -20,90 -20,0 -20,-90 20,0 10,52 10,-52 z"
       style="fill:none;fill-rule:evenodd;stroke:#000000;stroke-width:1px;stroke-linecap:butt;stroke-linejoin:miter;stroke-opacity:1" />
    <path
       style="fill:none;fill-rule:evenodd;stroke:#000000;stroke-width:1px;stroke-linecap:butt;stroke-linejoin:miter;stroke-opacity:1"
       d="m 874.58905,249.07794 0,20 20,0 0,69.99999 20,0 0,-69.99999 20,0 0,-20 z"
       id="path3451"
       inkscape:connector-curvature="0" />
    <path
       inkscape:connector-curvature="0"
       id="path3455"
       d="m 1014.5891,249.07793 0,90 20,0 0,-90 z"
       style="fill:none;fill-rule:evenodd;stroke:#000000;stroke-width:1px;stroke-linecap:butt;stroke-linejoin:miter;stroke-opacity:1" />
    <path
       id="path3459"
       d="m 1184.5891,149.07793 0,80 20,0 0,-25 20,0 0,25 20,0 0,-80 c 0,-5 -5,-10 -10,-10 l -40,0 c -5,0 -10,5 -10,10 z m 20,10 20,0 0,25 -20,0 z"
       style="fill:none;fill-rule:evenodd;stroke:#000000;stroke-width:1px;stroke-linecap:butt;stroke-linejoin:miter;stroke-opacity:1"
       inkscape:connector-curvature="0"
       sodipodi:nodetypes="cccccccccccccccc" />
    <path
       id="path3461"
       d="m 944.58905,339.07793 20,0 0,-25 20,0 0,25 20.00005,0 0,-28 c 0,-4 -3,-7 -7.00005,-7 4.00005,0 7.00005,-3 7.00005,-7 l 0,-38 c 0,-5 -5.00005,-10 -10.00005,-10 l -50,0 z m 20,-70 20,0 0,25 -20,0 z"
       style="fill:none;fill-rule:evenodd;stroke:#000000;stroke-width:1px;stroke-linecap:butt;stroke-linejoin:miter;stroke-opacity:1"
       inkscape:connector-curvature="0"
       sodipodi:nodetypes="cccccccccccccccccc" />
    <path
       id="path3463"
       d="m 1044.5891,259.07793 0,80 20,0 0,-25 20,0 0,25 20,0 0,-80 c 0,-5 -5,-10 -10,-10 l -40,0 c -5,0 -10,5 -10,10 z m 20,10 20,0 0,25 -20,0 z"
       style="fill:none;fill-rule:evenodd;stroke:#000000;stroke-width:1px;stroke-linecap:butt;stroke-linejoin:miter;stroke-opacity:1"
       inkscape:connector-curvature="0"
       sodipodi:nodetypes="cccccccccccccccc" />
    <path
       sodipodi:nodetypes="ccccccccccc"
       inkscape:connector-curvature="0"
       id="path3465"
       d="m 1114.5891,339.07793 20,0 0,-40 20,40 20,0 0,-90 -20,0 0,40 -20,-40 -20,0 z"
       style="fill:none;fill-rule:evenodd;stroke:#000000;stroke-width:1px;stroke-linecap:butt;stroke-linejoin:miter;stroke-opacity:1" />
    <path
       sodipodi:nodetypes="ccccccccccccc"
       inkscape:connector-curvature="0"
       id="path3467"
       d="m 1324.5891,249.07794 0,89.99999 60,0 0,-20 -40,0 0,-20 20,0 0,-19.99999 -20,0 0,-10 40,0 0,-20 z"
       style="fill:none;fill-rule:evenodd;stroke:#000000;stroke-width:1px;stroke-linecap:butt;stroke-linejoin:miter;stroke-opacity:1" />
    <path
       style="fill:none;fill-rule:evenodd;stroke:#000000;stroke-width:1px;stroke-linecap:butt;stroke-linejoin:miter;stroke-opacity:1"
       d="m 1314.5891,319.07793 0,20 -60,0 0,-90 20,0 0,70 z"
       id="path3469"
       inkscape:connector-curvature="0" />
    <path
       sodipodi:nodetypes="ccccccccccccccc"
       inkscape:connector-curvature="0"
       id="path3471"
       d="m 1184.5891,259.07793 0,70 c 0,5 5,10 10,10 l 50,0 0,-60 -30,0 0,20 10,0 0,20 -20,0 0,-50 40,0 0,-20 -50,0 c -5,0 -10,5 -10,10 z"
       style="fill:none;fill-rule:evenodd;stroke:#000000;stroke-width:1px;stroke-linecap:butt;stroke-linejoin:miter;stroke-opacity:1" />
    <g
       id="g4979"
       transform="translate(-31.020312,14.30444)"
       style="stroke:#000000;stroke-opacity:1;stroke-width:2.5;stroke-miterlimit:4;stroke-dasharray:none">
      <path
         inkscape:connector-curvature="0"
         id="path3473"
         d="m 322.52676,459.56925 c 0,0 -7.56345,12.53467 -7.56345,12.53467 0,0 22.28353,0 22.28353,0 0,0 -30.56517,63.51688 -30.56517,63.51688 0,0 30.04464,0 30.04464,0 0,0 22.80407,-63.51688 22.80407,-63.51688 0,0 22.28353,0 22.28353,0 0,0 2.96864,-12.53467 2.96864,-12.53467 0,0 -62.25579,0 -62.25579,0"
         style="fill:#ffffff;fill-rule:evenodd;stroke:#000000;stroke-width:2.5;stroke-linecap:butt;stroke-linejoin:miter;stroke-opacity:1;stroke-miterlimit:4;stroke-dasharray:none" />
      <path
         inkscape:connector-curvature="0"
         id="path3475"
         d="m 395.15851,459.56925 c 0,0 -13.36525,76.05155 -13.36525,76.05155 0,0 30.04464,0 30.04464,0 0,0 2.18556,-40.81378 2.18556,-40.81378 0,0 25.05762,0 25.05762,0 0,0 2.80146,40.81378 2.80146,40.81378 0,0 30.04463,0 30.04463,0 0,0 -14.51287,-76.05155 -14.51287,-76.05155 0,0 -20.75193,0 -20.75193,0 0,0 1.34002,19.52243 1.34002,19.52243 0,0 -23.13737,0 -23.13737,0 0,0 1.04542,-19.52243 1.04542,-19.52243 0,0 -20.75193,0 -20.75193,0"
         style="fill:#ffffff;fill-rule:evenodd;stroke:#000000;stroke-width:2.5;stroke-linecap:butt;stroke-linejoin:miter;stroke-opacity:1;stroke-miterlimit:4;stroke-dasharray:none" />
      <path
         sodipodi:nodetypes="ccccccccccccc"
         inkscape:connector-curvature="0"
         id="path3477"
         d="m 467.79026,459.56925 c 0,0 19.15923,76.05155 19.15923,76.05155 0,0 90.13391,0 90.13391,0 0,0 -13.76383,-22.25381 -13.76383,-22.25381 0,0 -54.6509,0 -54.6509,0 0,0 -6.94354,-18.55997 -6.94354,-18.55997 0,0 25.05761,0 25.05761,0 0,0 -7.79957,-15.71534 -7.79957,-15.71534 0,0 -23.13737,0 -23.13737,0 0,0 -2.61422,-6.98776 -2.61422,-6.98776 0,0 44.56707,0 44.56707,0 0,0 -7.7526,-12.53467 -7.7526,-12.53467 0,0 -62.25579,0 -62.25579,0"
         style="fill:#ffffff;fill-rule:evenodd;stroke:#000000;stroke-width:2.5;stroke-linecap:butt;stroke-linejoin:miter;stroke-opacity:1;stroke-miterlimit:4;stroke-dasharray:none" />
      <path
         style="fill:#ffffff;fill-rule:evenodd;stroke:#000000;stroke-width:2.5;stroke-linecap:butt;stroke-linejoin:miter;stroke-opacity:1;stroke-miterlimit:4;stroke-dasharray:none"
         d="m 549.06826,548.13779 c 0,0 67.84813,146.27765 67.84813,146.27765 0,0 52.7456,0 52.7456,0 0,0 -26.7505,-45.09249 -26.7505,-45.09249 0,0 -31.2736,0 -31.2736,0 0,0 -18.30618,-36.10928 -18.30618,-36.10928 0,0 14.07928,0 14.07928,0 0,0 -16.26501,-29.56731 -16.26501,-29.56731 0,0 -12.80387,0 -12.80387,0 0,0 -6.52055,-12.86192 -6.52055,-12.86192 0,0 24.49815,0 24.49815,0 0,0 -13.43479,-22.64665 -13.43479,-22.64665 0,0 -33.81666,0 -33.81666,0"
         id="path3479"
         inkscape:connector-curvature="0"
         sodipodi:nodetypes="ccccccccccccc" />
      <path
         inkscape:connector-curvature="0"
         id="path3481"
         d="m 588.18266,649.32295 c 0,0 19.94273,45.09249 19.94273,45.09249 0,0 -52.74555,0 -52.74555,0 0,0 -45.76435,-146.27766 -45.76435,-146.27766 0,0 11.27222,0 11.27222,0 0,0 36.02133,101.18517 36.02133,101.18517 0,0 31.27362,0 31.27362,0"
         style="fill:#ffffff;fill-rule:evenodd;stroke:#000000;stroke-width:2.5;stroke-linecap:butt;stroke-linejoin:miter;stroke-opacity:1;stroke-miterlimit:4;stroke-dasharray:none" />
      <path
         sodipodi:nodetypes="cccccccccccccccccccc"
         inkscape:connector-curvature="0"
         id="path3483"
         d="m 470.16258,548.13687 c 0,0 23.68039,146.27637 23.68039,146.27637 0,0 43.95501,0.002 43.95501,0.002 4.39547,0 5.21005,-12.29309 1.83884,-23.86639 0,0 -16.70134,-57.33538 -16.70134,-57.33538 -0.93773,-3.21918 -4.37071,-7.93063 -5.74443,-7.93063 1.37372,0 2.10133,-4.57605 1.23376,-7.55439 0,0 -11.28402,-38.73781 -11.28402,-38.73781 -1.61286,-5.53692 -5.97946,-10.85306 -8.79752,-10.85306 0,0 -28.18069,-9.1e-4 -28.18069,-9.1e-4 m 15.91522,22.64649 c 0,0 12.24903,0 12.24903,0 0,0 4.89857,19.73977 4.89857,19.73977 0,0 -13.1005,0 -13.1005,0 0,0 -4.0471,-19.73977 -4.0471,-19.73977 m 10.40788,50.76452 c 0,0 14.43874,0 14.43874,0 0,0 6.89216,27.77333 6.89216,27.77333 0,0 -15.63673,0 -15.63673,0 0,0 -5.69417,-27.77333 -5.69417,-27.77333"
         style="fill:#ffffff;fill-rule:evenodd;stroke:#000000;stroke-width:2.5;stroke-linecap:butt;stroke-linejoin:miter;stroke-opacity:1;stroke-miterlimit:4;stroke-dasharray:none" />
      <path
         sodipodi:nodetypes="ccccccccccccc"
         inkscape:connector-curvature="0"
         id="path3485"
         d="m 425.07384,548.13778 c 0,0 -1.30376,122.41127 -1.30376,122.41127 -0.12326,11.5733 -4.64966,23.86639 -9.04513,23.86639 0,0 -35.16372,0 -35.16372,0 -4.39546,0 -7.06922,-12.29309 -5.44833,-23.86639 0,0 17.14429,-122.41127 17.14429,-122.41127 0,0 11.27222,0 11.27222,0 0,0 -8.86131,91.429 -8.86131,91.429 -0.56113,5.78965 0.61811,9.75617 2.96363,9.75617 0,0 7.81841,0 7.81841,0 2.34552,0 4.12254,-3.96652 4.43394,-9.75617 0,0 4.91755,-91.429 4.91755,-91.429 0,0 11.27221,0 11.27221,0"
         style="fill:#ffffff;fill-rule:evenodd;stroke:#000000;stroke-width:2.5;stroke-linecap:butt;stroke-linejoin:miter;stroke-opacity:1;stroke-miterlimit:4;stroke-dasharray:none" />
      <path
         style="fill:#ffffff;fill-rule:evenodd;stroke:#000000;stroke-width:2.5;stroke-linecap:butt;stroke-linejoin:miter;stroke-opacity:1;stroke-miterlimit:4;stroke-dasharray:none"
         d="m 369.26732,649.32295 c 0,0 -7.28795,45.09249 -7.28795,45.09249 0,0 -52.74558,0 -52.74558,0 0,0 42.57063,-146.27766 42.57063,-146.27766 0,0 11.27222,0 11.27222,0 0,0 -25.08295,101.18517 -25.08295,101.18517 0,0 31.27363,0 31.27363,0"
         id="path3487"
         inkscape:connector-curvature="0" />
      <path
         sodipodi:nodetypes="cccccccccccccccc"
         inkscape:connector-curvature="0"
         style="fill:#ffffff;fill-rule:evenodd;stroke:#000000;stroke-width:2.5;stroke-linecap:butt;stroke-linejoin:miter;stroke-opacity:1;stroke-miterlimit:4;stroke-dasharray:none"
         d="m 307.55462,558.99084 c 0,0 -59.85735,135.4246 -59.85735,135.4246 0,0 17.58187,0 17.58187,0 0,0 21.87709,-54.84866 21.87709,-54.84866 0,0 15.21598,0 15.21598,0 0,0 -19.51121,54.84866 -19.51121,54.84866 0,0 17.58186,0 17.58186,0 0,0 42.33285,-135.4246 42.33285,-135.4246 1.73081,-5.53692 0.57454,-10.85306 -2.24351,-10.85306 0,0 -22.54444,0 -22.54444,0 -2.81806,0 -7.98583,5.31614 -10.43314,10.85306 0,0 0,0 0,0 m 7.03634,11.79359 c 0,0 12.24908,0 12.24908,0 0,0 -12.27213,34.49861 -12.27213,34.49861 0,0 -13.73717,0 -13.73717,0 0,0 13.76022,-34.49861 13.76022,-34.49861"
         id="path3489" />
      <path
         sodipodi:nodetypes="cccccccc"
         inkscape:connector-curvature="0"
         id="path3491"
         d="m 306.71554,548.13778 c 0,0 -85.39106,146.27766 -85.39106,146.27766 0,0 -17.58186,0 -17.58186,0 0,0 69.15626,-146.27766 69.15626,-146.27766 0,0 11.27222,0 11.27222,0 0,0 -30.47614,68.35985 -30.47614,68.35985 0,0 41.74836,-68.35985 41.74836,-68.35985 0,0 11.27222,0 11.27222,0"
         style="fill:#ffffff;fill-rule:evenodd;stroke:#000000;stroke-width:2.5;stroke-linecap:butt;stroke-linejoin:miter;stroke-opacity:1;stroke-miterlimit:4;stroke-dasharray:none" />
      <path
         id="path3497"
         d="m 430.82843,558.99084 c 0,0 1.47839,135.4246 1.47839,135.4246 0,0 17.58186,0 17.58186,0 0,0 -2.96465,-54.84866 -2.96465,-54.84866 0,0 15.21598,0 15.21598,0 0,0 5.33053,54.84866 5.33053,54.84866 0,0 17.58186,0 17.58186,0 0,0 -19.00288,-135.4246 -19.00288,-135.4246 -0.77694,-5.53692 -4.34096,-10.85306 -7.15902,-10.85306 0,0 -22.54444,0 -22.54444,0 -2.81805,0 -5.57807,5.31614 -5.51763,10.85306 0,0 0,0 0,0 m 12.37783,11.79359 c 0,0 12.24907,0 12.24907,0 0,0 3.35278,34.49861 3.35278,34.49861 0,0 -13.73716,0 -13.73716,0 0,0 -1.86469,-34.49861 -1.86469,-34.49861"
         style="fill:#ffffff;fill-rule:evenodd;stroke:#000000;stroke-width:2.5;stroke-linecap:butt;stroke-linejoin:miter;stroke-opacity:1;stroke-miterlimit:4;stroke-dasharray:none"
         inkscape:connector-curvature="0"
         sodipodi:nodetypes="cccccccccccccccc" />
      <path
         style="fill:#ffffff;fill-rule:evenodd;stroke:#000000;stroke-width:2.5;stroke-linecap:butt;stroke-linejoin:miter;stroke-opacity:1;stroke-miterlimit:4;stroke-dasharray:none"
         d="m 180.74988,707.43301 c 0,0 -20.02859,32.84445 -20.02859,32.84445 0,0 21.00605,0 21.00605,0 0,0 -98.027131,174.67005 -98.027131,174.67005 0,0 29.492961,0 29.492961,0 0,0 89.54023,-174.67005 89.54023,-174.67005 0,0 21.00605,0 21.00605,0 0,0 15.24103,-32.84445 15.24103,-32.84445 0,0 -58.2306,0 -58.2306,0"
         id="path3493"
         inkscape:connector-curvature="0" />
      <path
         inkscape:connector-curvature="0"
         id="path3495"
         d="m 316.62128,707.43299 c 0,0 -55.96328,207.51452 -55.96328,207.51452 0,0 29.49296,0 29.49296,0 0,0 45.88053,-207.51452 45.88053,-207.51452 0,0 -19.41021,0 -19.41021,0"
         style="fill:#ffffff;fill-rule:evenodd;stroke:#000000;stroke-width:2.5;stroke-linecap:butt;stroke-linejoin:miter;stroke-opacity:1;stroke-miterlimit:4;stroke-dasharray:none" />
      <path
         id="path3499"
         d="m 157.43261,914.94751 c 0,0 29.49297,0 29.49297,0 0,0 29.93954,-76.54149 29.93954,-76.54149 0,0 25.77395,0 25.77395,0 0,0 -26.22052,76.54149 -26.22052,76.54149 0,0 29.49296,0 29.49296,0 0,0 24.82602,-84.44861 24.82602,-84.44861 2.99366,-10.18328 1.48299,-17.56403 -3.42428,-17.56403 4.90727,0 10.69587,-7.17112 13.41534,-16.42169 0,0 21.55046,-73.3064 21.55046,-73.3064 2.36345,-8.03959 -0.21542,-15.77379 -5.06796,-15.77379 0,0 -48.5255,0 -48.5255,0 0,0 -91.25298,207.51452 -91.25298,207.51452 m 97.81593,-174.67007 c 0,0 21.00606,0 21.00606,0 0,0 -16.96399,49.52033 -16.96399,49.52033 0,0 -23.41216,0 -23.41216,0 0,0 19.37009,-49.52033 19.37009,-49.52033"
         style="fill:#ffffff;fill-rule:evenodd;stroke:#000000;stroke-width:2.5;stroke-linecap:butt;stroke-linejoin:miter;stroke-opacity:1;stroke-miterlimit:4;stroke-dasharray:none"
         inkscape:connector-curvature="0"
         sodipodi:nodetypes="cccccccccccccccccc" />
      <path
         id="path3501"
         d="m 342.63228,723.20678 c 0,0 -37.73484,191.74073 -37.73484,191.74073 0,0 29.49297,0 29.49297,0 0,0 11.34445,-76.54149 11.34445,-76.54149 0,0 25.77395,0 25.77395,0 0,0 -7.62544,76.54149 -7.62544,76.54149 0,0 29.49297,0 29.49297,0 0,0 9.78581,-191.74073 9.78581,-191.74073 0.41031,-8.03959 -4.04752,-15.77379 -8.90006,-15.77379 0,0 -38.82041,0 -38.82041,0 -4.85254,0 -11.22719,7.7342 -12.8094,15.77379 0,0 0,0 0,0 m 17.64652,17.07066 c 0,0 21.00606,0 21.00606,0 0,0 -4.93345,49.52033 -4.93345,49.52033 0,0 -23.41217,0 -23.41217,0 0,0 7.33956,-49.52033 7.33956,-49.52033"
         style="fill:#ffffff;fill-rule:evenodd;stroke:#000000;stroke-width:2.5;stroke-linecap:butt;stroke-linejoin:miter;stroke-opacity:1;stroke-miterlimit:4;stroke-dasharray:none"
         inkscape:connector-curvature="0"
         sodipodi:nodetypes="cccccccccccccccc" />
      <path
         sodipodi:nodetypes="ccccccccccc"
         inkscape:connector-curvature="0"
         id="path3503"
         d="m 408.12282,914.94751 c 0,0 29.49296,0 29.49296,0 0,0 -2.48718,-113.85242 -2.48718,-113.85242 0,0 31.98015,113.85242 31.98015,113.85242 0,0 29.49294,0 29.49294,0 0,0 -24.69881,-207.51452 -24.69881,-207.51452 0,0 -19.4102,0 -19.4102,0 0,0 5.04121,71.57348 5.04121,71.57348 0,0 -24.45141,-71.57348 -24.45141,-71.57348 0,0 -19.4102,0 -19.4102,0 0,0 -5.54946,207.51452 -5.54946,207.51452"
         style="fill:#ffffff;fill-rule:evenodd;stroke:#000000;stroke-width:2.5;stroke-linecap:butt;stroke-linejoin:miter;stroke-opacity:1;stroke-miterlimit:4;stroke-dasharray:none" />
      <path
         sodipodi:nodetypes="ccccccccccccc"
         inkscape:connector-curvature="0"
         id="path3505"
         d="m 617.47938,707.43301 c 0,0 100.3196,207.5145 100.3196,207.5145 0,0 88.47883,0 88.47883,0 0,0 -39.52458,-62.81743 -39.52458,-62.81743 0,0 -52.88159,0 -52.88159,0 0,0 -27.15175,-51.03499 -27.15175,-51.03499 0,0 23.9611,0 23.9611,0 0,0 -24.5501,-42.28329 -24.5501,-42.28329 0,0 -21.90669,0 -21.90669,0 0,0 -9.8606,-18.53434 -9.8606,-18.53434 0,0 42.01207,0 42.01207,0 0,0 -20.66565,-32.84445 -20.66565,-32.84445 0,0 -58.23064,0 -58.23064,0"
         style="fill:#ffffff;fill-rule:evenodd;stroke:#000000;stroke-width:2.5;stroke-linecap:butt;stroke-linejoin:miter;stroke-opacity:1;stroke-miterlimit:4;stroke-dasharray:none" />
      <path
         style="fill:#ffffff;fill-rule:evenodd;stroke:#000000;stroke-width:2.5;stroke-linecap:butt;stroke-linejoin:miter;stroke-opacity:1;stroke-miterlimit:4;stroke-dasharray:none"
         d="m 674.21048,852.13008 c 0,0 28.84196,62.81743 28.84196,62.81743 0,0 -88.47884,0 -88.47884,0 0,0 -65.02993,-207.51452 -65.02993,-207.51452 0,0 19.41025,0 19.41025,0 0,0 52.37498,144.69709 52.37498,144.69709 0,0 52.88158,0 52.88158,0"
         id="path3507"
         inkscape:connector-curvature="0" />
      <path
         sodipodi:nodetypes="ccccccccccccccc"
         inkscape:connector-curvature="0"
         id="path3509"
         d="m 483.86862,723.20678 c 0,0 22.73259,158.61811 22.73259,158.61811 2.3069,16.09678 12.12024,33.12262 19.49346,33.12262 0,0 73.73239,0 73.73239,0 0,0 -45.1359,-156.13573 -45.1359,-156.13573 0,0 -32.85983,0 -32.85983,0 0,0 9.14154,42.28331 9.14154,42.28331 0,0 11.9806,0 11.9806,0 0,0 12.27353,51.03499 12.27353,51.03499 0,0 -26.44074,0 -26.44074,0 0,0 -21.46507,-111.85264 -21.46507,-111.85264 0,0 42.01206,0 42.01206,0 0,0 -9.49465,-32.84445 -9.49465,-32.84445 0,0 -48.52552,0 -48.52552,0 -4.85255,0 -8.59667,7.7342 -7.44446,15.77379 0,0 0,0 0,0"
         style="fill:#ffffff;fill-rule:evenodd;stroke:#000000;stroke-width:2.5;stroke-linecap:butt;stroke-linejoin:miter;stroke-opacity:1;stroke-miterlimit:4;stroke-dasharray:none" />
    </g>
  </g>
</svg>
